<svg width="66" height="65" viewBox="0 0 66 65" fill="none" xmlns="http://www.w3.org/2000/svg">
<path d="M32.534 0C32.0194 0 31.5319 -2.52233e-08 31.0173 0.0270833C13.0881 0.866667 -0.778542 16.0604 0.0339577 33.9896C0.846458 51.4312 15.2277 65 32.4798 65C32.9944 65 33.4819 65 33.9965 64.9729C51.9256 64.1333 65.7923 48.9396 64.9798 31.0104C64.1673 13.5687 49.786 0 32.534 0ZM25.7631 34.8562L25.8444 34.9104L29.5548 36.7521L29.636 36.7792L31.2881 37.6187C32.0465 38.025 32.9673 38.025 33.7256 37.6187L35.2694 36.8333L35.3506 36.8062L39.4944 34.7479L39.5215 34.7208L48.3506 30.3062L51.4652 28.7625V43.3333C51.4652 44.8229 50.2465 46.0417 48.7569 46.0417H16.2569C14.7673 46.0417 13.5485 44.8229 13.5485 43.3333V28.7625L16.7444 30.3604L25.7631 34.8562ZM49.9756 23.4542L41.0652 27.8958L41.0381 27.9229L32.5069 32.175L24.3006 28.0854L24.2735 28.0583L15.0381 23.4542C14.1173 22.9937 13.5485 22.0458 13.5485 21.0167V18.9583H51.4652V21.0167C51.4652 22.0729 50.8965 22.9937 49.9756 23.4542Z" fill="white"/>
</svg>
