<svg width="67" height="65" viewBox="0 0 67 65" fill="none" xmlns="http://www.w3.org/2000/svg">
<path d="M22.9999 65C24.0355 64.5564 24.7609 63.5314 24.7609 62.3383V54.5098C24.7609 54.2242 24.7842 53.927 24.8206 53.6254C24.8002 53.6312 24.7813 53.6356 24.7609 53.6399C24.7609 53.6399 20.3913 53.6399 19.5174 53.6399C17.3326 53.6399 15.4391 52.7701 14.5652 51.0304C13.5457 49.1458 13.1087 45.9564 10.487 44.2167C10.05 43.9268 10.3413 43.4918 11.2152 43.4918C12.0891 43.6368 13.9826 44.7966 15.1478 46.3913C16.4587 47.986 17.7696 49.2907 20.1 49.2907C23.7224 49.2907 25.6639 49.1095 26.832 48.4861C28.1924 46.4725 30.0757 44.9416 32.0435 44.9416V44.9053C23.7879 44.6415 18.5138 41.9102 16.0582 37.6929C10.72 37.7538 6.07224 38.2801 3.41991 38.7179C3.33543 38.2438 3.26261 37.7669 3.19998 37.287C5.81735 36.8579 10.2539 36.349 15.3547 36.2519C15.1915 35.8518 15.0502 35.4415 14.9308 35.0211C9.81696 34.763 5.4037 34.9645 3.00626 35.1617C2.97713 34.6804 2.9378 34.2005 2.93198 33.7134C5.33378 33.5177 9.62761 33.322 14.6104 33.5525C14.4953 32.8276 14.421 32.0868 14.421 31.3156C14.421 28.851 15.2949 26.2415 16.8971 24.0669C16.1688 21.6024 15.1493 16.3834 17.1884 14.4987C21.121 14.4987 23.8884 16.3834 25.1993 17.5432C27.6739 16.5269 30.4413 15.947 33.5 15.947C36.5587 15.947 39.3261 16.5269 41.6565 17.5417C42.9674 16.3819 45.7348 14.4973 49.6674 14.4973C51.8522 16.5269 50.687 21.7459 49.9587 24.0655C51.5609 26.2401 52.4348 28.7046 52.2891 31.3141C52.2891 32.0158 52.2236 32.6928 52.1289 33.3568C57.2253 33.1074 61.6356 33.3075 64.0782 33.5047C64.0753 33.9932 64.0302 34.4702 64.0039 34.9529C61.5701 34.7529 57.049 34.547 51.8289 34.8239C51.6992 35.311 51.5419 35.7851 51.3555 36.2446C56.5203 36.3113 61.0632 36.8086 63.8058 37.2435C63.7432 37.7248 63.6704 38.2018 63.5859 38.6744C60.801 38.2308 56.0542 37.7118 50.6535 37.6857C48.2283 41.858 43.0504 44.5791 34.9565 44.8966V44.9416C38.7435 44.9416 42.2391 50.5955 42.2391 54.5098V62.3383C42.2391 63.5314 42.9645 64.5564 44.0001 65C57.3433 60.6044 67 48.0788 67 33.3437C67 14.9583 51.9731 0 33.5 0C15.0269 0 0 14.9583 0 33.3437C0 48.0788 9.65674 60.6044 22.9999 65Z" fill="white"/>
</svg>
