<svg width="16" height="17" viewBox="0 0 16 17" fill="none" xmlns="http://www.w3.org/2000/svg">
<path d="M14.1006 11.5524C13.0721 10.7318 12.0255 10.2332 11.0101 11.0538L10.4024 11.5475C9.95828 11.9082 9.13242 13.588 5.94065 10.163C2.74889 6.74528 4.64733 6.21278 5.09402 5.85697L5.70432 5.36077C6.71457 4.54022 6.33281 3.50667 5.60304 2.44166L5.16414 1.79781C4.43177 0.737633 3.63188 0.0405323 2.61904 0.858657L2.07106 1.30645C1.62177 1.60901 0.369999 2.59899 0.0661451 4.47729C-0.300038 6.73076 0.855646 9.31342 3.49684 12.1454C6.13543 14.9798 8.72209 16.403 11.1685 16.3788C13.202 16.357 14.433 15.3404 14.8173 14.9701L15.3653 14.5223C16.3782 13.7042 15.7497 12.8691 14.7187 12.0486L14.1006 11.5524Z" fill="#5D835B"/>
</svg>
