<svg width="16" height="17" viewBox="0 0 16 17" fill="none" xmlns="http://www.w3.org/2000/svg">
<path d="M7.93944 0.452637C3.55489 0.452637 0 4.00752 0 8.39208C0 9.88153 0.41837 11.2702 1.13199 12.4613L0.0710725 16.3315L4.024 15.2939C5.18006 15.9511 6.51464 16.3315 7.93944 16.3315C12.324 16.3315 15.8789 12.7766 15.8789 8.39208C15.8789 4.00752 12.324 0.452637 7.93944 0.452637ZM5.22189 4.68856C5.35091 4.68856 5.48347 4.68777 5.59793 4.69373C5.73952 4.69703 5.89362 4.7074 6.04116 5.03358C6.21649 5.42129 6.59826 6.39393 6.64722 6.49251C6.69618 6.59109 6.73087 6.70722 6.66272 6.83624C6.59788 6.96856 6.56416 7.04865 6.46889 7.16576C6.37031 7.27956 6.26229 7.42089 6.17297 7.5069C6.07439 7.60549 5.97259 7.71358 6.08639 7.91008C6.20019 8.10658 6.5954 8.75076 7.17961 9.2708C7.93055 9.94168 8.56414 10.1478 8.7613 10.2464C8.95846 10.345 9.07264 10.3296 9.18644 10.1973C9.30355 10.0683 9.67826 9.62561 9.81059 9.42845C9.9396 9.23128 10.0713 9.2654 10.2499 9.33024C10.4312 9.39508 11.398 9.87131 11.5952 9.96989C11.7923 10.0685 11.9216 10.1173 11.9712 10.1973C12.0221 10.28 12.0222 10.6737 11.8588 11.1329C11.6953 11.5914 10.8929 12.0348 10.5329 12.0659C10.1697 12.0996 9.83073 12.2291 8.17204 11.5761C6.1713 10.7881 4.90954 8.73891 4.81096 8.60659C4.71238 8.47757 4.00978 7.54117 4.00978 6.57521C4.00978 5.60594 4.51798 5.13124 4.69595 4.93408C4.87724 4.73692 5.08957 4.68856 5.22189 4.68856Z" fill="#5D835B"/>
</svg>
